<?xml version="1.0" standalone="no"?>
<!DOCTYPE svg PUBLIC "-//W3C//DTD SVG 20010904//EN"
 "http://www.w3.org/TR/2001/REC-SVG-20010904/DTD/svg10.dtd">
<svg version="1.0" xmlns="http://www.w3.org/2000/svg"
 width="512.000000pt" height="512.000000pt" viewBox="0 0 512.000000 512.000000"
 preserveAspectRatio="xMidYMid meet">

<g transform="translate(0.000000,512.000000) scale(0.100000,-0.100000)"
 stroke="none">
<path d="M1686 5104 c-133 -32 -278 -146 -343 -270 -61 -116 -63 -130 -63
-755 0 -378 4 -576 11 -597 23 -66 110 -86 166 -38 l28 24 5 594 5 593 26 55
c37 80 81 125 157 162 l67 33 1050 3 c601 1 1045 -1 1040 -6 -6 -5 -176 -80
-380 -167 -203 -86 -400 -173 -438 -192 -126 -66 -216 -195 -237 -340 -6 -42
-10 -693 -10 -1710 l0 -1643 -478 0 c-303 0 -500 4 -538 11 -76 14 -150 49
-206 99 l-45 39 -7 637 c-4 392 -11 644 -17 655 -38 72 -157 65 -188 -10 -9
-20 -11 -206 -9 -683 l3 -656 39 -56 c68 -98 211 -190 354 -227 69 -18 114
-19 582 -19 l507 0 6 -132 c7 -151 25 -216 83 -303 69 -105 180 -176 308 -197
127 -21 151 -13 821 273 336 144 640 277 678 296 130 68 217 198 238 351 6 50
9 719 7 1947 l-3 1870 -22 57 c-29 75 -85 159 -137 204 -52 46 -145 91 -215
104 -35 6 -529 10 -1420 9 -1144 -1 -1376 -3 -1425 -15z m2873 -227 c49 -25
86 -64 112 -122 18 -38 19 -123 19 -1935 l0 -1895 -24 -51 c-13 -28 -40 -64
-61 -81 -40 -34 -1248 -555 -1325 -572 -96 -21 -200 25 -255 113 l-30 49 -3
1904 -2 1904 21 50 c12 27 39 65 60 83 28 24 217 109 657 297 339 145 637 269
662 275 55 15 111 8 169 -19z"/>
<path d="M3238 2741 l-33 -29 -3 -234 c-2 -146 1 -247 7 -269 22 -75 115 -96
172 -40 l29 29 0 255 0 255 -31 31 c-42 42 -95 43 -141 2z"/>
<path d="M1783 3618 c-44 -11 -73 -51 -73 -101 0 -40 5 -47 242 -284 l242
-243 -957 -2 -957 -3 -31 -32 c-45 -44 -45 -102 0 -146 l31 -32 957 -3 957 -2
-242 -243 c-237 -237 -242 -244 -242 -284 0 -69 59 -117 130 -105 36 7 696
665 711 709 8 24 8 42 0 66 -15 44 -675 702 -711 709 -14 2 -39 1 -57 -4z"/>
</g>
</svg>
